<?xml version="1.0" encoding="UTF-8"?>
<svg viewBox="0 0 800 420" xmlns="http://www.w3.org/2000/svg">
  <defs>
    <filter id="shadow" x="-20%" y="-20%" width="140%" height="140%">
      <feDropShadow dx="2" dy="2" stdDeviation="2" flood-opacity="0.15"/>
    </filter>
    <radialGradient id="magnetFieldGreen" cx="50%" cy="50%" r="50%">
      <stop offset="0%" style="stop-color:#4CAF50;stop-opacity:0.3"/>
      <stop offset="100%" style="stop-color:#4CAF50;stop-opacity:0"/>
    </radialGradient>
    <radialGradient id="magnetFieldBlue" cx="50%" cy="50%" r="50%">
      <stop offset="0%" style="stop-color:#2196F3;stop-opacity:0.3"/>
      <stop offset="100%" style="stop-color:#2196F3;stop-opacity:0"/>
    </radialGradient>
    <radialGradient id="magnetFieldOrange" cx="50%" cy="50%" r="50%">
      <stop offset="0%" style="stop-color:#FF9800;stop-opacity:0.3"/>
      <stop offset="100%" style="stop-color:#FF9800;stop-opacity:0"/>
    </radialGradient>
    <radialGradient id="magnetFieldRed" cx="50%" cy="50%" r="50%">
      <stop offset="0%" style="stop-color:#F44336;stop-opacity:0.3"/>
      <stop offset="100%" style="stop-color:#F44336;stop-opacity:0"/>
    </radialGradient>
  </defs>
  
  <text x="400" y="35" text-anchor="middle" font-family="Arial, sans-serif" font-size="22" font-weight="bold" fill="#1a1a1a">Clustering: Magnetic Attraction</text>
  <text x="400" y="58" text-anchor="middle" font-family="Arial, sans-serif" font-size="14" fill="#666">Similar customers are pulled toward the same center - no labels needed</text>
  
  <!-- BEFORE Section -->
  <rect x="30" y="80" width="300" height="240" rx="10" fill="#FAFAFA" stroke="#E0E0E0" stroke-width="2"/>
  <text x="180" y="105" text-anchor="middle" font-family="Arial, sans-serif" font-size="14" font-weight="bold" fill="#757575">BEFORE: Scattered Data</text>
  
  <!-- Random gray dots -->
  <circle cx="80" cy="150" r="8" fill="#9E9E9E"/>
  <circle cx="120" cy="200" r="8" fill="#9E9E9E"/>
  <circle cx="150" cy="140" r="8" fill="#9E9E9E"/>
  <circle cx="100" cy="180" r="8" fill="#9E9E9E"/>
  <circle cx="180" cy="160" r="8" fill="#9E9E9E"/>
  <circle cx="200" cy="220" r="8" fill="#9E9E9E"/>
  <circle cx="230" cy="180" r="8" fill="#9E9E9E"/>
  <circle cx="260" cy="140" r="8" fill="#9E9E9E"/>
  <circle cx="280" cy="200" r="8" fill="#9E9E9E"/>
  <circle cx="90" cy="250" r="8" fill="#9E9E9E"/>
  <circle cx="160" cy="270" r="8" fill="#9E9E9E"/>
  <circle cx="220" cy="250" r="8" fill="#9E9E9E"/>
  <circle cx="290" cy="260" r="8" fill="#9E9E9E"/>
  <circle cx="140" cy="230" r="8" fill="#9E9E9E"/>
  <circle cx="250" cy="230" r="8" fill="#9E9E9E"/>
  
  <text x="180" y="300" text-anchor="middle" font-family="Arial, sans-serif" font-size="11" fill="#999" font-style="italic">"Who belongs together?"</text>
  
  <!-- Arrow -->
  <g transform="translate(340, 180)">
    <rect x="0" y="0" width="80" height="40" rx="5" fill="#E3F2FD" stroke="#2196F3" stroke-width="2"/>
    <text x="40" y="18" text-anchor="middle" font-family="Arial, sans-serif" font-size="10" font-weight="bold" fill="#1565C0">K-MEANS</text>
    <text x="40" y="32" text-anchor="middle" font-family="Arial, sans-serif" font-size="9" fill="#666">Drop magnets</text>
  </g>
  
  <!-- AFTER Section -->
  <rect x="440" y="80" width="330" height="240" rx="10" fill="#FAFAFA" stroke="#E0E0E0" stroke-width="2"/>
  <text x="605" y="105" text-anchor="middle" font-family="Arial, sans-serif" font-size="14" font-weight="bold" fill="#333">AFTER: Magnetic Clusters</text>
  
  <!-- Magnetic fields (radial gradients) -->
  <circle cx="510" cy="160" r="55" fill="url(#magnetFieldGreen)"/>
  <circle cx="700" cy="155" r="60" fill="url(#magnetFieldBlue)"/>
  <circle cx="530" cy="265" r="50" fill="url(#magnetFieldOrange)"/>
  <circle cx="690" cy="260" r="45" fill="url(#magnetFieldRed)"/>
  
  <!-- Magnets (centers) - horseshoe shape suggested -->
  <g transform="translate(495, 145)">
    <rect x="0" y="0" width="30" height="30" rx="5" fill="#4CAF50" stroke="#2E7D32" stroke-width="2"/>
    <text x="15" y="20" text-anchor="middle" font-family="Arial, sans-serif" font-size="14" font-weight="bold" fill="white">N</text>
  </g>
  
  <g transform="translate(685, 140)">
    <rect x="0" y="0" width="30" height="30" rx="5" fill="#2196F3" stroke="#1565C0" stroke-width="2"/>
    <text x="15" y="20" text-anchor="middle" font-family="Arial, sans-serif" font-size="14" font-weight="bold" fill="white">N</text>
  </g>
  
  <g transform="translate(515, 250)">
    <rect x="0" y="0" width="30" height="30" rx="5" fill="#FF9800" stroke="#E65100" stroke-width="2"/>
    <text x="15" y="20" text-anchor="middle" font-family="Arial, sans-serif" font-size="14" font-weight="bold" fill="white">N</text>
  </g>
  
  <g transform="translate(675, 245)">
    <rect x="0" y="0" width="30" height="30" rx="5" fill="#F44336" stroke="#C62828" stroke-width="2"/>
    <text x="15" y="20" text-anchor="middle" font-family="Arial, sans-serif" font-size="14" font-weight="bold" fill="white">N</text>
  </g>
  
  <!-- Attracted dots with pull lines -->
  <!-- Green cluster -->
  <line x1="480" y1="135" x2="505" y2="155" stroke="#4CAF50" stroke-width="1" stroke-dasharray="3,2" opacity="0.5"/>
  <circle cx="480" cy="135" r="6" fill="#4CAF50"/>
  <line x1="525" y1="125" x2="515" y2="150" stroke="#4CAF50" stroke-width="1" stroke-dasharray="3,2" opacity="0.5"/>
  <circle cx="525" cy="125" r="6" fill="#4CAF50"/>
  <line x1="475" y1="175" x2="505" y2="165" stroke="#4CAF50" stroke-width="1" stroke-dasharray="3,2" opacity="0.5"/>
  <circle cx="475" cy="175" r="6" fill="#4CAF50"/>
  <line x1="540" y1="175" x2="520" y2="165" stroke="#4CAF50" stroke-width="1" stroke-dasharray="3,2" opacity="0.5"/>
  <circle cx="540" cy="175" r="6" fill="#4CAF50"/>
  
  <!-- Blue cluster -->
  <line x1="670" y1="130" x2="695" y2="150" stroke="#2196F3" stroke-width="1" stroke-dasharray="3,2" opacity="0.5"/>
  <circle cx="670" cy="130" r="6" fill="#2196F3"/>
  <line x1="720" y1="135" x2="705" y2="150" stroke="#2196F3" stroke-width="1" stroke-dasharray="3,2" opacity="0.5"/>
  <circle cx="720" cy="135" r="6" fill="#2196F3"/>
  <line x1="680" y1="180" x2="695" y2="165" stroke="#2196F3" stroke-width="1" stroke-dasharray="3,2" opacity="0.5"/>
  <circle cx="680" cy="180" r="6" fill="#2196F3"/>
  <line x1="730" y1="170" x2="710" y2="160" stroke="#2196F3" stroke-width="1" stroke-dasharray="3,2" opacity="0.5"/>
  <circle cx="730" cy="170" r="6" fill="#2196F3"/>
  <line x1="660" y1="165" x2="690" y2="160" stroke="#2196F3" stroke-width="1" stroke-dasharray="3,2" opacity="0.5"/>
  <circle cx="660" cy="165" r="6" fill="#2196F3"/>
  
  <!-- Orange cluster -->
  <line x1="500" y1="245" x2="525" y2="260" stroke="#FF9800" stroke-width="1" stroke-dasharray="3,2" opacity="0.5"/>
  <circle cx="500" cy="245" r="6" fill="#FF9800"/>
  <line x1="555" y1="250" x2="535" y2="260" stroke="#FF9800" stroke-width="1" stroke-dasharray="3,2" opacity="0.5"/>
  <circle cx="555" cy="250" r="6" fill="#FF9800"/>
  <line x1="515" y1="290" x2="525" y2="275" stroke="#FF9800" stroke-width="1" stroke-dasharray="3,2" opacity="0.5"/>
  <circle cx="515" cy="290" r="6" fill="#FF9800"/>
  
  <!-- Red cluster -->
  <line x1="665" y1="245" x2="685" y2="255" stroke="#F44336" stroke-width="1" stroke-dasharray="3,2" opacity="0.5"/>
  <circle cx="665" cy="245" r="6" fill="#F44336"/>
  <line x1="710" y1="270" x2="695" y2="265" stroke="#F44336" stroke-width="1" stroke-dasharray="3,2" opacity="0.5"/>
  <circle cx="710" cy="270" r="6" fill="#F44336"/>
  
  <!-- Cluster labels -->
  <text x="510" y="205" text-anchor="middle" font-family="Arial, sans-serif" font-size="10" font-weight="bold" fill="#2E7D32">Loyal</text>
  <text x="700" y="200" text-anchor="middle" font-family="Arial, sans-serif" font-size="10" font-weight="bold" fill="#1565C0">New Active</text>
  <text x="530" y="315" text-anchor="middle" font-family="Arial, sans-serif" font-size="10" font-weight="bold" fill="#E65100">At Risk</text>
  <text x="690" y="305" text-anchor="middle" font-family="Arial, sans-serif" font-size="10" font-weight="bold" fill="#C62828">Churning</text>
  
  <!-- Bottom use cases -->
  <rect x="30" y="340" width="740" height="65" rx="8" fill="#FAFAFA" stroke="#E0E0E0" stroke-width="1"/>
  <text x="400" y="365" text-anchor="middle" font-family="Arial, sans-serif" font-size="13" font-weight="bold" fill="#333">Each Magnet = Different Strategy</text>
  
  <rect x="55" y="378" width="12" height="12" rx="3" fill="#4CAF50"/>
  <text x="75" y="388" font-family="Arial, sans-serif" font-size="10" fill="#666">Referral program</text>
  
  <rect x="205" y="378" width="12" height="12" rx="3" fill="#2196F3"/>
  <text x="225" y="388" font-family="Arial, sans-serif" font-size="10" fill="#666">Onboarding emails</text>
  
  <rect x="375" y="378" width="12" height="12" rx="3" fill="#FF9800"/>
  <text x="395" y="388" font-family="Arial, sans-serif" font-size="10" fill="#666">Retention offers</text>
  
  <rect x="535" y="378" width="12" height="12" rx="3" fill="#F44336"/>
  <text x="555" y="388" font-family="Arial, sans-serif" font-size="10" fill="#666">Win-back campaign</text>
</svg>
